<svg version="1.1" id="Layer_1" xmlns="http://www.w3.org/2000/svg" xmlns:xlink="http://www.w3.org/1999/xlink" x="0px" y="0px"
	 width="100px"  viewBox="0 0 821 176" enable-background="new 0 0 821 176" xml:space="preserve">

<path fill="#5571F0" opacity="1.000000" stroke="none" 
	d="
M163.531342,1.000000 
	C168.411987,3.968506 173.723267,6.036558 175.357727,11.856133 
	C176.055145,14.339349 176.927383,16.903065 176.932663,19.431841 
	C177.027496,64.910019 176.863190,110.389198 177.109985,155.866226 
	C177.164062,165.830200 173.574234,172.668808 164.134567,176.675598 
	C114.645775,177.000000 65.291542,177.000000 15.320580,176.669769 
	C7.160912,174.949249 3.731843,169.332764 1.000000,163.000000 
	C1.000000,113.979103 1.000000,64.958206 1.330226,15.320579 
	C3.050722,7.160893 8.667246,3.731852 15.000000,1.000000 
	C64.354225,1.000000 113.708458,1.000000 163.531342,1.000000 
M113.601273,17.469355 
	C90.122139,17.350899 66.642723,17.132015 43.164104,17.198105 
	C38.426842,17.211441 35.807587,20.763601 35.803467,26.104067 
	C35.771065,68.090042 35.766453,110.076065 35.808319,152.062027 
	C35.813988,157.745712 38.753090,160.859940 44.329391,160.874557 
	C73.652740,160.951370 102.976547,160.958191 132.299805,160.865799 
	C137.769150,160.848572 140.832809,157.495392 140.894684,152.002045 
	C140.971619,145.171860 141.594315,138.256882 140.771149,131.526535 
	C139.090637,117.786201 142.673676,106.953697 153.864761,97.963226 
	C159.583405,93.369080 162.985489,86.330002 162.160660,77.881966 
	C161.414291,70.237495 157.008698,65.284569 149.205887,65.253090 
	C146.600876,65.242584 143.995789,65.251434 141.291916,65.251434 
	C141.115784,64.026520 140.931976,63.388348 140.946167,62.754608 
	C141.505325,37.791470 141.241989,42.799477 124.446548,24.768885 
	C123.652107,23.916021 122.911278,22.947590 121.955856,22.323101 
	C119.489258,20.710890 116.916313,19.261366 113.601273,17.469355 
z"/>

<path fill="#FAFBFF" opacity="1.000000" stroke="none" 
	d="
M113.993561,17.608109 
	C116.916313,19.261366 119.489258,20.710890 121.955856,22.323101 
	C122.911278,22.947590 123.652107,23.916021 124.446548,24.768885 
	C141.241989,42.799477 141.505325,37.791470 140.946167,62.754608 
	C140.931976,63.388348 141.115784,64.026520 141.291916,65.251434 
	C143.995789,65.251434 146.600876,65.242584 149.205887,65.253090 
	C157.008698,65.284569 161.414291,70.237495 162.160660,77.881966 
	C162.985489,86.330002 159.583405,93.369080 153.864761,97.963226 
	C142.673676,106.953697 139.090637,117.786201 140.771149,131.526535 
	C141.594315,138.256882 140.971619,145.171860 140.894684,152.002045 
	C140.832809,157.495392 137.769150,160.848572 132.299805,160.865799 
	C102.976547,160.958191 73.652740,160.951370 44.329391,160.874557 
	C38.753090,160.859940 35.813988,157.745712 35.808319,152.062027 
	C35.766453,110.076065 35.771065,68.090042 35.803467,26.104067 
	C35.807587,20.763601 38.426842,17.211441 43.164104,17.198105 
	C66.642723,17.132015 90.122139,17.350899 113.993561,17.608109 
M73.500015,23.205511 
	C64.507790,23.205896 55.515121,23.256950 46.523598,23.177528 
	C43.613361,23.151823 41.849689,23.700438 41.856686,27.256821 
	C41.937588,68.387878 41.928692,109.519188 41.865723,150.650314 
	C41.861130,153.652145 42.941364,154.825684 45.930912,154.820557 
	C74.239769,154.771973 102.548782,154.766434 130.857590,154.827789 
	C133.996490,154.834595 134.854172,153.395142 134.826324,150.537781 
	C134.737106,141.379883 134.807327,132.220505 134.778442,123.061829 
	C134.774612,121.847168 134.553452,120.633209 134.432938,119.418922 
	C134.674133,119.824547 134.915329,120.230179 135.156525,120.635811 
	C128.235260,126.850128 121.024879,132.776505 114.471336,139.357040 
	C107.447777,146.409515 99.058411,145.558578 90.633430,144.374847 
	C88.843933,144.123428 86.355995,141.588562 85.983582,139.743637 
	C84.238342,131.097794 83.505409,122.335266 90.361610,115.195488 
	C104.648277,100.317871 119.049683,85.550362 133.314774,70.652229 
	C134.202682,69.724915 134.691025,68.069046 134.728806,66.734131 
	C134.884186,61.243267 134.674805,55.741859 134.840607,50.251610 
	C134.930832,47.263805 133.948929,45.955803 130.842789,46.166351 
	C128.024902,46.357361 125.183067,46.244946 122.352997,46.196346 
	C115.413750,46.077183 112.880791,43.473839 112.800591,36.396832 
	C112.766624,33.399796 112.625381,30.390017 112.838402,27.407852 
	C113.077271,24.063831 111.666298,23.110647 108.470055,23.150770 
	C97.148262,23.292894 85.823601,23.205900 73.500015,23.205511 
M109.100891,124.612274 
	C106.960609,126.889153 104.820328,129.166031 102.746948,131.371735 
	C106.651497,137.469040 107.300934,137.572647 111.869865,132.841171 
	C123.879631,120.404160 135.882187,107.960091 147.855606,95.488113 
	C152.818802,90.318245 152.781708,90.282639 147.315521,85.040077 
	C134.738220,98.055443 122.159386,111.072395 109.100891,124.612274 
M114.479492,98.980377 
	C108.749290,104.983238 103.056259,111.022163 97.277443,116.977852 
	C92.415321,121.988800 92.415802,122.505280 98.372498,126.948105 
	C113.199463,111.497200 128.058609,96.012772 142.882874,80.564667 
	C137.832016,74.647026 137.822723,74.638107 132.886948,79.777702 
	C126.908539,86.002953 120.947868,92.245224 114.479492,98.980377 
M146.120346,71.801270 
	C145.849136,72.266937 145.246536,73.035828 145.354889,73.154228 
	C148.604095,76.705322 151.923599,80.192116 155.788437,84.277145 
	C156.337402,72.933769 155.392532,71.733589 146.120346,71.801270 
M127.548042,37.018921 
	C125.039513,34.295677 122.530983,31.572437 119.478905,28.259123 
	C117.972237,40.467194 118.980896,41.460236 129.682693,39.416359 
	C129.078445,38.719391 128.566055,38.128384 127.548042,37.018921 
M98.065269,136.501495 
	C96.199440,134.291977 94.333611,132.082458 91.832916,129.121140 
	C90.141808,139.338409 91.965759,139.224991 98.452873,138.914139 
	C98.523903,138.910736 98.535591,137.669022 98.065269,136.501495 
z"/>

<path fill="#5773F0" opacity="1.000000" stroke="none" 
	d="
M74.000015,23.205624 
	C85.823601,23.205900 97.148262,23.292894 108.470055,23.150770 
	C111.666298,23.110647 113.077271,24.063831 112.838402,27.407852 
	C112.625381,30.390017 112.766624,33.399796 112.800591,36.396832 
	C112.880791,43.473839 115.413750,46.077183 122.352997,46.196346 
	C125.183067,46.244946 128.024902,46.357361 130.842789,46.166351 
	C133.948929,45.955803 134.930832,47.263805 134.840607,50.251610 
	C134.674805,55.741859 134.884186,61.243267 134.728806,66.734131 
	C134.691025,68.069046 134.202682,69.724915 133.314774,70.652229 
	C119.049683,85.550362 104.648277,100.317871 90.361610,115.195488 
	C83.505409,122.335266 84.238342,131.097794 85.983582,139.743637 
	C86.355995,141.588562 88.843933,144.123428 90.633430,144.374847 
	C99.058411,145.558578 107.447777,146.409515 114.471336,139.357040 
	C121.024879,132.776505 128.235260,126.850128 135.156525,120.635811 
	C134.915329,120.230179 134.674133,119.824547 134.432938,119.418922 
	C134.553452,120.633209 134.774612,121.847168 134.778442,123.061829 
	C134.807327,132.220505 134.737106,141.379883 134.826324,150.537781 
	C134.854172,153.395142 133.996490,154.834595 130.857590,154.827789 
	C102.548782,154.766434 74.239769,154.771973 45.930912,154.820557 
	C42.941364,154.825684 41.861130,153.652145 41.865723,150.650314 
	C41.928692,109.519188 41.937588,68.387878 41.856686,27.256821 
	C41.849689,23.700438 43.613361,23.151823 46.523598,23.177528 
	C55.515121,23.256950 64.507790,23.205896 74.000015,23.205624 
M105.466492,74.194359 
	C89.147522,74.194344 72.828552,74.187279 56.509598,74.202034 
	C54.103279,74.204208 51.340637,73.467323 51.408901,77.595665 
	C51.478718,81.817825 54.420959,80.771149 56.699158,80.778824 
	C72.018822,80.830460 87.338737,80.805717 102.658577,80.805725 
	C106.947441,80.805725 111.236298,80.805725 115.693970,80.805725 
	C115.693970,78.375412 115.693970,76.500366 115.693970,74.194618 
	C112.385529,74.194618 109.418030,74.194618 105.466492,74.194359 
M93.500000,63.007416 
	C79.742393,63.007416 65.984779,63.007416 52.205029,63.007416 
	C52.205029,65.291290 52.205029,66.992783 52.205029,68.621887 
	C76.610336,68.621887 100.630867,68.621887 124.916878,68.621887 
	C124.818100,66.640610 124.738533,65.044548 124.636978,63.007420 
	C114.384186,63.007420 104.442093,63.007420 93.500000,63.007416 
M106.499374,51.792946 
	C88.422073,51.792946 70.344772,51.792946 52.195389,51.792946 
	C52.195389,54.127708 52.195389,55.829906 52.195389,57.516792 
	C76.599403,57.516792 100.613731,57.516792 124.923851,57.516792 
	C124.826859,55.513786 124.749489,53.915855 124.646683,51.792721 
	C118.723602,51.792721 113.111160,51.792721 106.499374,51.792946 
M51.803371,42.609409 
	C52.534264,43.799480 53.245380,46.011799 53.999012,46.026379 
	C65.410019,46.247139 76.826591,46.179623 88.155472,46.179623 
	C89.533455,41.596977 88.471046,39.877174 83.936150,40.008202 
	C74.633133,40.276993 65.315964,40.023403 56.007191,40.160221 
	C54.617569,40.180645 53.241928,41.151733 51.803371,42.609409 
M80.134254,140.602356 
	C79.604576,140.091736 79.079521,139.141708 78.544510,139.136063 
	C69.780441,139.043671 61.015110,139.070511 52.193253,139.070511 
	C52.193253,141.263184 52.193253,142.964035 52.193253,144.984955 
	C60.847153,144.984955 69.138977,145.096512 77.418869,144.833069 
	C78.372772,144.802719 79.260216,142.683609 80.134254,140.602356 
z"/>

</svg>