<svg xmlns="http://www.w3.org/2000/svg" viewBox="0 0 819.81 175.5">
  <defs>
    <style>
      .a {
        fill: #00356a;
        stroke: #00356a;
        stroke-width: 4px;
      }

      .a, .d, .e {
        stroke-miterlimit: 10;
      }

      .b {
        opacity: 0.7;
      }

      .c {
        fill: #5470f0;
      }

      .d, .e, .f {
        fill: none;
      }

      .d {
        stroke: #5470f0;
        stroke-width: 7px;
      }

      .e, .f {
        stroke: #fff;
        stroke-width: 6px;
      }

      .f {
        stroke-linejoin: round;
      }
    </style>
  </defs>
  <g>
    <g>
      <path class="a" d="M322,449c18.77-3.5,62.79-5.5,77,6.72,21.54,13.86,13.86,44.37-13,51.26v.38c28.17,4.11,43.54,38.06,18.34,58.36-11.94,13-62.17,13.73-82.33,10.56Zm19.47,53c20.41,1.22,50.7-.48,50.34-21.7,2.22-21.65-34.14-23.23-50.34-20Zm0,62c19.65,2.7,56.15.67,55-24.38,1-24.23-33.73-26.17-55-24.95Z" transform="translate(-101.35 -424.25)"/>
      <path class="a" d="M521.37,516H462.75v46.65h65.33v14H443.29V447.31h81.43v14h-62v40.89h58.62Z" transform="translate(-101.35 -424.25)"/>
      <path class="a" d="M553.36,447.31h19.46V562.68h64.44v14h-83.9Z" transform="translate(-101.35 -424.25)"/>
      <path class="a" d="M779.1,510.66c3.43,90.52-141.1,89-137.82,2.49C638.42,424.59,781.94,422.8,779.1,510.66Zm-117,2.11c-1.14,69.57,98.45,69.4,96.43-1.35C760.28,442.21,659.68,441.34,662.09,512.77Z" transform="translate(-101.35 -424.25)"/>
      <path class="a" d="M919.15,570.94c-161.8,50.63-167.43-161-4.47-119L910,465.54c-116.69-40.22-130.32,124-9.84,95.22V522.17H869.49V508.74h49.66Z" transform="translate(-101.35 -424.25)"/>
    </g>
    <g class="b">
      <rect class="c" x="3.5" y="3.5" width="168.5" height="168.5" rx="15"/>
      <rect class="d" x="3.5" y="3.5" width="168.5" height="168.5" rx="15"/>
    </g>
    <g>
      <g>
        <line class="e" x1="50.57" y1="41.94" x2="86.93" y2="41.94"/>
        <line class="e" x1="50.57" y1="53.4" x2="123.3" y2="53.4"/>
        <line class="e" x1="50.57" y1="64.85" x2="123.3" y2="64.85"/>
        <line class="e" x1="50.57" y1="76.31" x2="114.45" y2="76.31"/>
      </g>
      <line class="e" x1="50.57" y1="140.66" x2="78.76" y2="140.66"/>
      <g>
        <path class="e" d="M237.84,533.44v42.31a5,5,0,0,1-5,5H143.72a5,5,0,0,1-5-5V448.25a5,5,0,0,1,5-5h67.07a13.53,13.53,0,0,1,8.47,3.6l15.12,15.73a14.41,14.41,0,0,1,3.46,8.61v22.06" transform="translate(-101.35 -424.25)"/>
        <path class="e" d="M215.79,443.25v17.94a5,5,0,0,0,5,5h17.05" transform="translate(-101.35 -424.25)"/>
      </g>
      <g>
        <path class="f" d="M253.69,509.74a5.25,5.25,0,0,1,0,7.21L211.06,561.3a4.78,4.78,0,0,1-6.93,0l-12.39-12.88a5.27,5.27,0,0,1,0-7.21l42.63-44.36a4.78,4.78,0,0,1,6.93,0Z" transform="translate(-101.35 -424.25)"/>
        <line class="e" x1="146.15" y1="79.04" x2="96.59" y2="130.61"/>
        <path class="e" d="M258.88,497.94a12.85,12.85,0,0,0-6.37-6.54h-10c-2.56,1-3.09,3.47-1.18,5.45l12.38,12.89c1.91,2,4.24,1.49,5.19-1.09Z" transform="translate(-101.35 -424.25)"/>
        <path class="e" d="M207.59,564.91H193.28a5,5,0,0,1-5-5v-15.1" transform="translate(-101.35 -424.25)"/>
      </g>
    </g>
  </g>
</svg>
