<svg version="1.1" id="Layer_1" xmlns="http://www.w3.org/2000/svg" xmlns:xlink="http://www.w3.org/1999/xlink" x="0px" y="0px"
	 width="100%" viewBox="0 0 821 176" enable-background="new 0 0 821 176" xml:space="preserve">
<path fill="#FFFFFF" opacity="1.000000" stroke="none" 
	d="
M822.000000,150.000000 
	C822.000000,158.994324 822.000000,167.988632 822.000000,177.000000 
	C602.977356,177.000000 383.954712,177.000000 164.600601,176.675598 
	C173.574234,172.668808 177.164062,165.830200 177.109985,155.866226 
	C176.863190,110.389198 177.027496,64.910019 176.932663,19.431841 
	C176.927383,16.903065 176.055145,14.339349 175.357727,11.856133 
	C173.723267,6.036558 168.411987,3.968506 164.000000,1.000000 
	C383.333344,1.000000 602.666687,1.000000 822.000000,1.000000 
	C822.000000,28.099436 822.000000,55.083675 821.531372,82.533958 
	C803.135315,83.000000 785.207886,83.000000 767.296021,83.000000 
	C767.296021,89.625366 767.296021,95.690857 767.296021,102.186493 
	C777.656250,102.186493 787.725708,102.186493 797.861877,102.186493 
	C797.861877,113.580109 797.861877,124.536110 797.861877,135.795715 
	C786.887329,137.545074 776.244141,139.732086 764.905640,138.224747 
	C750.720764,136.339020 738.511230,131.468521 729.105286,120.549049 
	C720.976440,111.112236 717.245728,99.724388 718.236389,87.619385 
	C719.417114,73.190292 725.540466,60.660965 737.180725,51.285599 
	C746.441040,43.827087 756.948120,39.742184 768.774109,39.007534 
	C782.327942,38.165550 795.529297,39.905590 808.267151,44.701153 
	C811.001648,45.730648 812.214417,44.322735 812.940063,42.119934 
	C814.554443,37.219643 816.057922,32.282822 817.857544,26.563244 
	C806.753113,24.715862 795.649170,22.159655 784.408325,21.189447 
	C772.131470,20.129831 759.786621,21.009232 747.674194,23.973145 
	C730.981934,28.057741 716.634766,36.154022 706.142700,49.784473 
	C694.224792,65.267342 690.360046,83.061035 694.019958,102.314125 
	C697.794067,122.167488 708.647339,137.068588 726.192627,146.986664 
	C735.998291,152.529617 746.497559,155.903397 757.817200,157.140869 
	C770.181458,158.492523 782.418457,158.619003 794.603027,156.085129 
	C803.761108,154.180618 812.869507,152.037109 822.000000,150.000000 
M221.309372,23.957872 
	C220.872910,25.524157 220.057922,27.089798 220.055252,28.656820 
	C219.985519,69.620064 219.997681,110.583443 220.009720,151.546799 
	C220.010147,152.986038 220.153458,154.425247 220.222504,155.720520 
	C224.869873,156.173584 229.122177,157.044281 233.344666,156.917953 
	C248.679565,156.459198 264.057129,156.235596 279.316895,154.823929 
	C292.074097,153.643784 303.407837,149.129333 312.248077,138.576614 
	C321.984375,126.954277 321.503601,104.392677 309.524750,94.093269 
	C305.027435,90.226471 300.151398,86.800140 296.115173,83.687485 
	C299.610260,80.412270 303.986847,77.214355 307.221130,73.115150 
	C318.031494,59.413864 315.759491,41.584118 300.968994,30.887800 
	C290.342438,23.202808 278.078857,21.630865 265.939117,21.289711 
	C251.340240,20.879450 236.680710,22.627319 221.309372,23.957872 
M679.071838,109.541588 
	C679.379150,108.799438 679.926636,108.067078 679.957336,107.313644 
	C680.348145,97.735420 681.109436,88.144623 680.904053,78.575745 
	C680.518738,60.625313 672.404419,46.047611 658.478271,35.357513 
	C642.556396,23.135403 624.135925,18.899420 603.990723,20.826853 
	C592.623840,21.914406 581.900757,24.479443 572.084534,30.066380 
	C557.294128,38.484406 546.575562,50.204540 541.791260,67.190727 
	C538.218445,79.875381 538.320435,92.450226 540.035034,105.187637 
	C542.549927,123.869751 553.023926,137.385529 568.742676,146.864807 
	C578.931641,153.009338 590.151428,155.974945 602.198425,157.309631 
	C614.281799,158.648346 625.813232,157.155991 636.820251,153.405365 
	C657.811584,146.252609 672.833374,132.455978 679.071838,109.541588 
M372.563843,77.000000 
	C370.128906,77.000000 367.693970,77.000000 365.303650,77.000000 
	C365.303650,64.693306 365.303650,52.961510 365.303650,40.799393 
	C386.003754,40.799393 406.403046,40.799393 426.662415,40.799393 
	C426.662415,34.289112 426.662415,28.220173 426.662415,22.349882 
	C397.928711,22.349882 369.533691,22.349882 341.357239,22.349882 
	C341.357239,67.091843 341.357239,111.483299 341.357239,155.630859 
	C371.110596,155.630859 400.505829,155.630859 429.788391,155.630859 
	C429.788391,149.310623 429.788391,143.361298 429.788391,136.983582 
	C408.183075,136.983582 386.783752,136.983582 365.242981,136.983582 
	C365.242981,122.816475 365.242981,109.086105 365.242981,94.920471 
	C384.880920,94.920471 404.280914,94.920471 423.722748,94.920471 
	C423.722748,88.748016 423.722748,83.015961 423.722748,77.000000 
	C406.813507,77.000000 390.179962,77.000000 372.563843,77.000000 
M519.499817,137.000000 
	C504.746857,137.000000 489.993896,137.000000 474.839172,137.000000 
	C474.839172,98.361305 474.839172,60.314751 474.839172,22.299667 
	C466.695892,22.299667 458.966003,22.299667 451.282593,22.299667 
	C451.282593,66.974518 451.282593,111.349121 451.282593,155.721710 
	C480.949280,155.721710 510.332520,155.721710 539.705872,155.721710 
	C539.705872,149.375137 539.705872,143.312241 539.705872,137.000000 
	C533.109680,137.000000 526.804626,137.000000 519.499817,137.000000 
z"/>
<path fill="#5571F0" opacity="1.000000" stroke="none" 
	d="
M163.531342,1.000000 
	C168.411987,3.968506 173.723267,6.036558 175.357727,11.856133 
	C176.055145,14.339349 176.927383,16.903065 176.932663,19.431841 
	C177.027496,64.910019 176.863190,110.389198 177.109985,155.866226 
	C177.164062,165.830200 173.574234,172.668808 164.134567,176.675598 
	C114.645775,177.000000 65.291542,177.000000 15.320580,176.669769 
	C7.160912,174.949249 3.731843,169.332764 1.000000,163.000000 
	C1.000000,113.979103 1.000000,64.958206 1.330226,15.320579 
	C3.050722,7.160893 8.667246,3.731852 15.000000,1.000000 
	C64.354225,1.000000 113.708458,1.000000 163.531342,1.000000 
M113.601273,17.469355 
	C90.122139,17.350899 66.642723,17.132015 43.164104,17.198105 
	C38.426842,17.211441 35.807587,20.763601 35.803467,26.104067 
	C35.771065,68.090042 35.766453,110.076065 35.808319,152.062027 
	C35.813988,157.745712 38.753090,160.859940 44.329391,160.874557 
	C73.652740,160.951370 102.976547,160.958191 132.299805,160.865799 
	C137.769150,160.848572 140.832809,157.495392 140.894684,152.002045 
	C140.971619,145.171860 141.594315,138.256882 140.771149,131.526535 
	C139.090637,117.786201 142.673676,106.953697 153.864761,97.963226 
	C159.583405,93.369080 162.985489,86.330002 162.160660,77.881966 
	C161.414291,70.237495 157.008698,65.284569 149.205887,65.253090 
	C146.600876,65.242584 143.995789,65.251434 141.291916,65.251434 
	C141.115784,64.026520 140.931976,63.388348 140.946167,62.754608 
	C141.505325,37.791470 141.241989,42.799477 124.446548,24.768885 
	C123.652107,23.916021 122.911278,22.947590 121.955856,22.323101 
	C119.489258,20.710890 116.916313,19.261366 113.601273,17.469355 
z"/>
<path fill="#00356A" opacity="1.000000" stroke="none" 
	d="
M822.000000,149.531342 
	C812.869507,152.037109 803.761108,154.180618 794.603027,156.085129 
	C782.418457,158.619003 770.181458,158.492523 757.817200,157.140869 
	C746.497559,155.903397 735.998291,152.529617 726.192627,146.986664 
	C708.647339,137.068588 697.794067,122.167488 694.019958,102.314125 
	C690.360046,83.061035 694.224792,65.267342 706.142700,49.784473 
	C716.634766,36.154022 730.981934,28.057741 747.674194,23.973145 
	C759.786621,21.009232 772.131470,20.129831 784.408325,21.189447 
	C795.649170,22.159655 806.753113,24.715862 817.857544,26.563244 
	C816.057922,32.282822 814.554443,37.219643 812.940063,42.119934 
	C812.214417,44.322735 811.001648,45.730648 808.267151,44.701153 
	C795.529297,39.905590 782.327942,38.165550 768.774109,39.007534 
	C756.948120,39.742184 746.441040,43.827087 737.180725,51.285599 
	C725.540466,60.660965 719.417114,73.190292 718.236389,87.619385 
	C717.245728,99.724388 720.976440,111.112236 729.105286,120.549049 
	C738.511230,131.468521 750.720764,136.339020 764.905640,138.224747 
	C776.244141,139.732086 786.887329,137.545074 797.861877,135.795715 
	C797.861877,124.536110 797.861877,113.580109 797.861877,102.186493 
	C787.725708,102.186493 777.656250,102.186493 767.296021,102.186493 
	C767.296021,95.690857 767.296021,89.625366 767.296021,83.000000 
	C785.207886,83.000000 803.135315,83.000000 821.531372,83.000000 
	C822.000000,105.020897 822.000000,127.041786 822.000000,149.531342 
z"/>
<path fill="#FFFFFF" opacity="1.000000" stroke="none" 
	d="
M1.000000,163.474121 
	C3.731843,169.332764 7.160912,174.949249 14.851921,176.669769 
	C10.409401,177.000000 5.818802,177.000000 1.000000,177.000000 
	C1.000000,172.651093 1.000000,168.299683 1.000000,163.474121 
z"/>
<path fill="#FFFFFF" opacity="1.000000" stroke="none" 
	d="
M14.525872,1.000000 
	C8.667246,3.731852 3.050722,7.160893 1.330226,14.851921 
	C1.000000,10.409401 1.000000,5.818802 1.000000,1.000000 
	C5.348905,1.000000 9.700325,1.000000 14.525872,1.000000 
z"/>
<path fill="#00356A" opacity="1.000000" stroke="none" 
	d="
M221.678406,23.699348 
	C236.680710,22.627319 251.340240,20.879450 265.939117,21.289711 
	C278.078857,21.630865 290.342438,23.202808 300.968994,30.887800 
	C315.759491,41.584118 318.031494,59.413864 307.221130,73.115150 
	C303.986847,77.214355 299.610260,80.412270 296.115173,83.687485 
	C300.151398,86.800140 305.027435,90.226471 309.524750,94.093269 
	C321.503601,104.392677 321.984375,126.954277 312.248077,138.576614 
	C303.407837,149.129333 292.074097,153.643784 279.316895,154.823929 
	C264.057129,156.235596 248.679565,156.459198 233.344666,156.917953 
	C229.122177,157.044281 224.869873,156.173584 220.222504,155.720520 
	C220.153458,154.425247 220.010147,152.986038 220.009720,151.546799 
	C219.997681,110.583443 219.985519,69.620064 220.055252,28.656820 
	C220.057922,27.089798 220.872910,25.524157 221.678406,23.699348 
M293.150421,122.358917 
	C295.636078,114.295158 293.155304,105.829460 286.197998,101.508774 
	C273.053436,93.345619 258.698151,93.898468 244.000000,94.110992 
	C244.000000,101.925484 244.000000,109.224030 244.000000,116.522575 
	C244.000000,123.949005 244.000000,131.375443 244.000000,138.701706 
	C256.125946,140.220291 267.575958,139.944168 278.628693,135.937912 
	C285.009399,133.625092 290.752716,130.286316 293.150421,122.358917 
M244.751663,76.915474 
	C248.906448,76.943642 253.101685,77.353798 257.207489,76.919235 
	C265.371368,76.055138 273.508423,75.190071 281.022369,71.102943 
	C287.450958,67.606186 289.607788,61.957092 289.546509,55.546986 
	C289.491119,49.754910 285.613556,45.662758 280.463654,43.189770 
	C268.911743,37.642536 256.688568,38.039227 244.081375,39.293976 
	C244.081375,51.703190 244.081375,63.964809 244.751663,76.915474 
z"/>
<path fill="#00356A" opacity="1.000000" stroke="none" 
	d="
M679.037720,109.961754 
	C672.833374,132.455978 657.811584,146.252609 636.820251,153.405365 
	C625.813232,157.155991 614.281799,158.648346 602.198425,157.309631 
	C590.151428,155.974945 578.931641,153.009338 568.742676,146.864807 
	C553.023926,137.385529 542.549927,123.869751 540.035034,105.187637 
	C538.320435,92.450226 538.218445,79.875381 541.791260,67.190727 
	C546.575562,50.204540 557.294128,38.484406 572.084534,30.066380 
	C581.900757,24.479443 592.623840,21.914406 603.990723,20.826853 
	C624.135925,18.899420 642.556396,23.135403 658.478271,35.357513 
	C672.404419,46.047611 680.518738,60.625313 680.904053,78.575745 
	C681.109436,88.144623 680.348145,97.735420 679.957336,107.313644 
	C679.926636,108.067078 679.379150,108.799438 679.037720,109.961754 
M564.994629,83.272171 
	C564.996399,88.274399 564.451477,93.349648 565.107971,98.264427 
	C566.734558,110.441437 571.186523,121.181778 581.353333,129.128830 
	C591.128479,136.769791 602.007996,139.879852 614.184631,138.983307 
	C623.976196,138.262360 632.652466,134.846741 640.188904,128.378174 
	C649.603210,120.297737 654.389099,109.672028 655.773376,97.861008 
	C657.167236,85.967873 656.899902,73.625610 650.834290,62.898808 
	C639.675964,43.165619 621.264221,35.376377 599.383057,40.167717 
	C578.398499,44.762711 566.122803,61.139053 564.994629,83.272171 
z"/>
<path fill="#00356A" opacity="1.000000" stroke="none" 
	d="
M373.055115,77.000000 
	C390.179962,77.000000 406.813507,77.000000 423.722748,77.000000 
	C423.722748,83.015961 423.722748,88.748016 423.722748,94.920471 
	C404.280914,94.920471 384.880920,94.920471 365.242981,94.920471 
	C365.242981,109.086105 365.242981,122.816475 365.242981,136.983582 
	C386.783752,136.983582 408.183075,136.983582 429.788391,136.983582 
	C429.788391,143.361298 429.788391,149.310623 429.788391,155.630859 
	C400.505829,155.630859 371.110596,155.630859 341.357239,155.630859 
	C341.357239,111.483299 341.357239,67.091843 341.357239,22.349882 
	C369.533691,22.349882 397.928711,22.349882 426.662415,22.349882 
	C426.662415,28.220173 426.662415,34.289112 426.662415,40.799393 
	C406.403046,40.799393 386.003754,40.799393 365.303650,40.799393 
	C365.303650,52.961510 365.303650,64.693306 365.303650,77.000000 
	C367.693970,77.000000 370.128906,77.000000 373.055115,77.000000 
z"/>
<path fill="#00356A" opacity="1.000000" stroke="none" 
	d="
M519.999756,137.000000 
	C526.804626,137.000000 533.109680,137.000000 539.705872,137.000000 
	C539.705872,143.312241 539.705872,149.375137 539.705872,155.721710 
	C510.332520,155.721710 480.949280,155.721710 451.282593,155.721710 
	C451.282593,111.349121 451.282593,66.974518 451.282593,22.299667 
	C458.966003,22.299667 466.695892,22.299667 474.839172,22.299667 
	C474.839172,60.314751 474.839172,98.361305 474.839172,137.000000 
	C489.993896,137.000000 504.746857,137.000000 519.999756,137.000000 
z"/>
<path fill="#FAFBFF" opacity="1.000000" stroke="none" 
	d="
M113.993561,17.608109 
	C116.916313,19.261366 119.489258,20.710890 121.955856,22.323101 
	C122.911278,22.947590 123.652107,23.916021 124.446548,24.768885 
	C141.241989,42.799477 141.505325,37.791470 140.946167,62.754608 
	C140.931976,63.388348 141.115784,64.026520 141.291916,65.251434 
	C143.995789,65.251434 146.600876,65.242584 149.205887,65.253090 
	C157.008698,65.284569 161.414291,70.237495 162.160660,77.881966 
	C162.985489,86.330002 159.583405,93.369080 153.864761,97.963226 
	C142.673676,106.953697 139.090637,117.786201 140.771149,131.526535 
	C141.594315,138.256882 140.971619,145.171860 140.894684,152.002045 
	C140.832809,157.495392 137.769150,160.848572 132.299805,160.865799 
	C102.976547,160.958191 73.652740,160.951370 44.329391,160.874557 
	C38.753090,160.859940 35.813988,157.745712 35.808319,152.062027 
	C35.766453,110.076065 35.771065,68.090042 35.803467,26.104067 
	C35.807587,20.763601 38.426842,17.211441 43.164104,17.198105 
	C66.642723,17.132015 90.122139,17.350899 113.993561,17.608109 
M73.500015,23.205511 
	C64.507790,23.205896 55.515121,23.256950 46.523598,23.177528 
	C43.613361,23.151823 41.849689,23.700438 41.856686,27.256821 
	C41.937588,68.387878 41.928692,109.519188 41.865723,150.650314 
	C41.861130,153.652145 42.941364,154.825684 45.930912,154.820557 
	C74.239769,154.771973 102.548782,154.766434 130.857590,154.827789 
	C133.996490,154.834595 134.854172,153.395142 134.826324,150.537781 
	C134.737106,141.379883 134.807327,132.220505 134.778442,123.061829 
	C134.774612,121.847168 134.553452,120.633209 134.432938,119.418922 
	C134.674133,119.824547 134.915329,120.230179 135.156525,120.635811 
	C128.235260,126.850128 121.024879,132.776505 114.471336,139.357040 
	C107.447777,146.409515 99.058411,145.558578 90.633430,144.374847 
	C88.843933,144.123428 86.355995,141.588562 85.983582,139.743637 
	C84.238342,131.097794 83.505409,122.335266 90.361610,115.195488 
	C104.648277,100.317871 119.049683,85.550362 133.314774,70.652229 
	C134.202682,69.724915 134.691025,68.069046 134.728806,66.734131 
	C134.884186,61.243267 134.674805,55.741859 134.840607,50.251610 
	C134.930832,47.263805 133.948929,45.955803 130.842789,46.166351 
	C128.024902,46.357361 125.183067,46.244946 122.352997,46.196346 
	C115.413750,46.077183 112.880791,43.473839 112.800591,36.396832 
	C112.766624,33.399796 112.625381,30.390017 112.838402,27.407852 
	C113.077271,24.063831 111.666298,23.110647 108.470055,23.150770 
	C97.148262,23.292894 85.823601,23.205900 73.500015,23.205511 
M109.100891,124.612274 
	C106.960609,126.889153 104.820328,129.166031 102.746948,131.371735 
	C106.651497,137.469040 107.300934,137.572647 111.869865,132.841171 
	C123.879631,120.404160 135.882187,107.960091 147.855606,95.488113 
	C152.818802,90.318245 152.781708,90.282639 147.315521,85.040077 
	C134.738220,98.055443 122.159386,111.072395 109.100891,124.612274 
M114.479492,98.980377 
	C108.749290,104.983238 103.056259,111.022163 97.277443,116.977852 
	C92.415321,121.988800 92.415802,122.505280 98.372498,126.948105 
	C113.199463,111.497200 128.058609,96.012772 142.882874,80.564667 
	C137.832016,74.647026 137.822723,74.638107 132.886948,79.777702 
	C126.908539,86.002953 120.947868,92.245224 114.479492,98.980377 
M146.120346,71.801270 
	C145.849136,72.266937 145.246536,73.035828 145.354889,73.154228 
	C148.604095,76.705322 151.923599,80.192116 155.788437,84.277145 
	C156.337402,72.933769 155.392532,71.733589 146.120346,71.801270 
M127.548042,37.018921 
	C125.039513,34.295677 122.530983,31.572437 119.478905,28.259123 
	C117.972237,40.467194 118.980896,41.460236 129.682693,39.416359 
	C129.078445,38.719391 128.566055,38.128384 127.548042,37.018921 
M98.065269,136.501495 
	C96.199440,134.291977 94.333611,132.082458 91.832916,129.121140 
	C90.141808,139.338409 91.965759,139.224991 98.452873,138.914139 
	C98.523903,138.910736 98.535591,137.669022 98.065269,136.501495 
z"/>
<path fill="#FFFFFF" opacity="1.000000" stroke="none" 
	d="
M293.082184,122.770401 
	C290.752716,130.286316 285.009399,133.625092 278.628693,135.937912 
	C267.575958,139.944168 256.125946,140.220291 244.000000,138.701706 
	C244.000000,131.375443 244.000000,123.949005 244.000000,116.522575 
	C244.000000,109.224030 244.000000,101.925484 244.000000,94.110992 
	C258.698151,93.898468 273.053436,93.345619 286.197998,101.508774 
	C293.155304,105.829460 295.636078,114.295158 293.082184,122.770401 
z"/>
<path fill="#FFFFFF" opacity="1.000000" stroke="none" 
	d="
M244.416519,76.570953 
	C244.081375,63.964809 244.081375,51.703190 244.081375,39.293976 
	C256.688568,38.039227 268.911743,37.642536 280.463654,43.189770 
	C285.613556,45.662758 289.491119,49.754910 289.546509,55.546986 
	C289.607788,61.957092 287.450958,67.606186 281.022369,71.102943 
	C273.508423,75.190071 265.371368,76.055138 257.207489,76.919235 
	C253.101685,77.353798 248.906448,76.943642 244.416519,76.570953 
z"/>
<path fill="#FFFFFF" opacity="1.000000" stroke="none" 
	d="
M564.997070,82.814774 
	C566.122803,61.139053 578.398499,44.762711 599.383057,40.167717 
	C621.264221,35.376377 639.675964,43.165619 650.834290,62.898808 
	C656.899902,73.625610 657.167236,85.967873 655.773376,97.861008 
	C654.389099,109.672028 649.603210,120.297737 640.188904,128.378174 
	C632.652466,134.846741 623.976196,138.262360 614.184631,138.983307 
	C602.007996,139.879852 591.128479,136.769791 581.353333,129.128830 
	C571.186523,121.181778 566.734558,110.441437 565.107971,98.264427 
	C564.451477,93.349648 564.996399,88.274399 564.997070,82.814774 
z"/>
<path fill="#5773F0" opacity="1.000000" stroke="none" 
	d="
M74.000015,23.205624 
	C85.823601,23.205900 97.148262,23.292894 108.470055,23.150770 
	C111.666298,23.110647 113.077271,24.063831 112.838402,27.407852 
	C112.625381,30.390017 112.766624,33.399796 112.800591,36.396832 
	C112.880791,43.473839 115.413750,46.077183 122.352997,46.196346 
	C125.183067,46.244946 128.024902,46.357361 130.842789,46.166351 
	C133.948929,45.955803 134.930832,47.263805 134.840607,50.251610 
	C134.674805,55.741859 134.884186,61.243267 134.728806,66.734131 
	C134.691025,68.069046 134.202682,69.724915 133.314774,70.652229 
	C119.049683,85.550362 104.648277,100.317871 90.361610,115.195488 
	C83.505409,122.335266 84.238342,131.097794 85.983582,139.743637 
	C86.355995,141.588562 88.843933,144.123428 90.633430,144.374847 
	C99.058411,145.558578 107.447777,146.409515 114.471336,139.357040 
	C121.024879,132.776505 128.235260,126.850128 135.156525,120.635811 
	C134.915329,120.230179 134.674133,119.824547 134.432938,119.418922 
	C134.553452,120.633209 134.774612,121.847168 134.778442,123.061829 
	C134.807327,132.220505 134.737106,141.379883 134.826324,150.537781 
	C134.854172,153.395142 133.996490,154.834595 130.857590,154.827789 
	C102.548782,154.766434 74.239769,154.771973 45.930912,154.820557 
	C42.941364,154.825684 41.861130,153.652145 41.865723,150.650314 
	C41.928692,109.519188 41.937588,68.387878 41.856686,27.256821 
	C41.849689,23.700438 43.613361,23.151823 46.523598,23.177528 
	C55.515121,23.256950 64.507790,23.205896 74.000015,23.205624 
M105.466492,74.194359 
	C89.147522,74.194344 72.828552,74.187279 56.509598,74.202034 
	C54.103279,74.204208 51.340637,73.467323 51.408901,77.595665 
	C51.478718,81.817825 54.420959,80.771149 56.699158,80.778824 
	C72.018822,80.830460 87.338737,80.805717 102.658577,80.805725 
	C106.947441,80.805725 111.236298,80.805725 115.693970,80.805725 
	C115.693970,78.375412 115.693970,76.500366 115.693970,74.194618 
	C112.385529,74.194618 109.418030,74.194618 105.466492,74.194359 
M93.500000,63.007416 
	C79.742393,63.007416 65.984779,63.007416 52.205029,63.007416 
	C52.205029,65.291290 52.205029,66.992783 52.205029,68.621887 
	C76.610336,68.621887 100.630867,68.621887 124.916878,68.621887 
	C124.818100,66.640610 124.738533,65.044548 124.636978,63.007420 
	C114.384186,63.007420 104.442093,63.007420 93.500000,63.007416 
M106.499374,51.792946 
	C88.422073,51.792946 70.344772,51.792946 52.195389,51.792946 
	C52.195389,54.127708 52.195389,55.829906 52.195389,57.516792 
	C76.599403,57.516792 100.613731,57.516792 124.923851,57.516792 
	C124.826859,55.513786 124.749489,53.915855 124.646683,51.792721 
	C118.723602,51.792721 113.111160,51.792721 106.499374,51.792946 
M51.803371,42.609409 
	C52.534264,43.799480 53.245380,46.011799 53.999012,46.026379 
	C65.410019,46.247139 76.826591,46.179623 88.155472,46.179623 
	C89.533455,41.596977 88.471046,39.877174 83.936150,40.008202 
	C74.633133,40.276993 65.315964,40.023403 56.007191,40.160221 
	C54.617569,40.180645 53.241928,41.151733 51.803371,42.609409 
M80.134254,140.602356 
	C79.604576,140.091736 79.079521,139.141708 78.544510,139.136063 
	C69.780441,139.043671 61.015110,139.070511 52.193253,139.070511 
	C52.193253,141.263184 52.193253,142.964035 52.193253,144.984955 
	C60.847153,144.984955 69.138977,145.096512 77.418869,144.833069 
	C78.372772,144.802719 79.260216,142.683609 80.134254,140.602356 
z"/>
<path fill="#5A75F1" opacity="1.000000" stroke="none" 
	d="
M109.340721,124.350807 
	C122.159386,111.072395 134.738220,98.055443 147.315521,85.040077 
	C152.781708,90.282639 152.818802,90.318245 147.855606,95.488113 
	C135.882187,107.960091 123.879631,120.404160 111.869865,132.841171 
	C107.300934,137.572647 106.651497,137.469040 102.746948,131.371735 
	C104.820328,129.166031 106.960609,126.889153 109.340721,124.350807 
z"/>
<path fill="#5A75F1" opacity="1.000000" stroke="none" 
	d="
M114.729507,98.730255 
	C120.947868,92.245224 126.908539,86.002953 132.886948,79.777702 
	C137.822723,74.638107 137.832016,74.647026 142.882874,80.564667 
	C128.058609,96.012772 113.199463,111.497200 98.372498,126.948105 
	C92.415802,122.505280 92.415321,121.988800 97.277443,116.977852 
	C103.056259,111.022163 108.749290,104.983238 114.729507,98.730255 
z"/>
<path fill="#5D78F1" opacity="1.000000" stroke="none" 
	d="
M146.531586,71.768631 
	C155.392532,71.733589 156.337402,72.933769 155.788437,84.277145 
	C151.923599,80.192116 148.604095,76.705322 145.354889,73.154228 
	C145.246536,73.035828 145.849136,72.266937 146.531586,71.768631 
z"/>
<path fill="#5672F0" opacity="1.000000" stroke="none" 
	d="
M127.800858,37.278152 
	C128.566055,38.128384 129.078445,38.719391 129.682693,39.416359 
	C118.980896,41.460236 117.972237,40.467194 119.478905,28.259123 
	C122.530983,31.572437 125.039513,34.295677 127.800858,37.278152 
z"/>
<path fill="#627BF1" opacity="1.000000" stroke="none" 
	d="
M98.320129,136.753433 
	C98.535591,137.669022 98.523903,138.910736 98.452873,138.914139 
	C91.965759,139.224991 90.141808,139.338409 91.832916,129.121140 
	C94.333611,132.082458 96.199440,134.291977 98.320129,136.753433 
z"/>
<path fill="#EBEEFD" opacity="1.000000" stroke="none" 
	d="
M105.958511,74.194489 
	C109.418030,74.194618 112.385529,74.194618 115.693970,74.194618 
	C115.693970,76.500366 115.693970,78.375412 115.693970,80.805725 
	C111.236298,80.805725 106.947441,80.805725 102.658577,80.805725 
	C87.338737,80.805717 72.018822,80.830460 56.699158,80.778824 
	C54.420959,80.771149 51.478718,81.817825 51.408901,77.595665 
	C51.340637,73.467323 54.103279,74.204208 56.509598,74.202034 
	C72.828552,74.187279 89.147522,74.194344 105.958511,74.194489 
z"/>
<path fill="#FFFFFF" opacity="1.000000" stroke="none" 
	d="
M94.000000,63.007416 
	C104.442093,63.007420 114.384186,63.007420 124.636978,63.007420 
	C124.738533,65.044548 124.818100,66.640610 124.916878,68.621887 
	C100.630867,68.621887 76.610336,68.621887 52.205029,68.621887 
	C52.205029,66.992783 52.205029,65.291290 52.205029,63.007416 
	C65.984779,63.007416 79.742393,63.007416 94.000000,63.007416 
z"/>
<path fill="#F9FAFE" opacity="1.000000" stroke="none" 
	d="
M106.999046,51.792831 
	C113.111160,51.792721 118.723602,51.792721 124.646683,51.792721 
	C124.749489,53.915855 124.826859,55.513786 124.923851,57.516792 
	C100.613731,57.516792 76.599403,57.516792 52.195389,57.516792 
	C52.195389,55.829906 52.195389,54.127708 52.195389,51.792946 
	C70.344772,51.792946 88.422073,51.792946 106.999046,51.792831 
z"/>
<path fill="#F8F9FE" opacity="1.000000" stroke="none" 
	d="
M51.831596,42.146217 
	C53.241928,41.151733 54.617569,40.180645 56.007191,40.160221 
	C65.315964,40.023403 74.633133,40.276993 83.936150,40.008202 
	C88.471046,39.877174 89.533455,41.596977 88.155472,46.179623 
	C76.826591,46.179623 65.410019,46.247139 53.999012,46.026379 
	C53.245380,46.011799 52.534264,43.799480 51.831596,42.146217 
z"/>
<path fill="#FFFFFF" opacity="1.000000" stroke="none" 
	d="
M80.156364,141.067642 
	C79.260216,142.683609 78.372772,144.802719 77.418869,144.833069 
	C69.138977,145.096512 60.847153,144.984955 52.193253,144.984955 
	C52.193253,142.964035 52.193253,141.263184 52.193253,139.070511 
	C61.015110,139.070511 69.780441,139.043671 78.544510,139.136063 
	C79.079521,139.141708 79.604576,140.091736 80.156364,141.067642 
z"/>
</svg>